<svg width="48" height="48" viewBox="0 0 48 48" xmlns="http://www.w3.org/2000/svg">
  <rect x="4" y="6" width="40" height="36" rx="2" fill="#f5f5f5" stroke="#333" stroke-width="2"/>
  <rect x="4" y="6" width="40" height="8" fill="#4285f4"/>
  <line x1="12" y1="2" x2="12" y2="10" stroke="#333" stroke-width="2"/>
  <line x1="36" y1="2" x2="36" y2="10" stroke="#333" stroke-width="2"/>
  <text x="24" y="13" font-family="Arial" font-size="6" text-anchor="middle" fill="white">TASKS</text>
  
  <!-- Calendar grid lines -->
  <line x1="4" y1="22" x2="44" y2="22" stroke="#ddd" stroke-width="1"/>
  <line x1="4" y1="30" x2="44" y2="30" stroke="#ddd" stroke-width="1"/>
  <line x1="4" y1="38" x2="44" y2="38" stroke="#ddd" stroke-width="1"/>
  <line x1="12" y1="14" x2="12" y2="42" stroke="#ddd" stroke-width="1"/>
  <line x1="20" y1="14" x2="20" y2="42" stroke="#ddd" stroke-width="1"/>
  <line x1="28" y1="14" x2="28" y2="42" stroke="#ddd" stroke-width="1"/>
  <line x1="36" y1="14" x2="36" y2="42" stroke="#ddd" stroke-width="1"/>
  
  <!-- Task checkmarks and markers -->
  <circle cx="16" cy="26" r="3" fill="#4285f4"/>
  <circle cx="24" cy="34" r="3" fill="#4285f4"/>
  <path d="M32,24 L35,27 L40,22" stroke="#4caf50" stroke-width="2" fill="none"/>
  <line x1="8" y1="18" x2="16" y2="18" stroke="#333" stroke-width="2"/>
</svg>